<?xml version="1.0" standalone="no"?>
<!DOCTYPE svg PUBLIC "-//W3C//DTD SVG 1.1//EN" "http://www.w3.org/Graphics/SVG/1.1/DTD/svg11.dtd" >
<svg xmlns="http://www.w3.org/2000/svg">
<metadata></metadata>
<defs>
<font id="myriad_appletext" horiz-adv-x="1019" >
<font-face units-per-em="2048" ascent="1638" descent="-410" />
<missing-glyph horiz-adv-x="495" />
<glyph horiz-adv-x="0" />
<glyph unicode="&#xd;" horiz-adv-x="430" />
<glyph unicode=" "  horiz-adv-x="495" />
<glyph unicode="&#x09;" horiz-adv-x="495" />
<glyph unicode="&#xa0;" horiz-adv-x="495" />
<glyph unicode="!" horiz-adv-x="454" d="M119 94q0 51 30.5 84t77.5 33q49 0 79 -33t30 -84q0 -59 -34 -88t-77 -29q-41 0 -73.5 30t-32.5 87zM139 1380h174l-24 -993h-125z" />
<glyph unicode="&#x22;" horiz-adv-x="667" d="M109 1415h159l-30 -479h-99zM399 1415h160l-31 -479h-98z" />
<glyph unicode="#" horiz-adv-x="985" d="M74 408v108h182l41 309h-176v109h190l54 397h108l-51 -397h215l51 397h111l-51 -397h163v-109h-180l-39 -309h174v-108h-190l-53 -408h-111l53 408h-213l-53 -408h-113l54 408h-166zM367 516h215l39 309h-213z" />
<glyph unicode="$" d="M135 123l47 119q125 -86 281 -86q111 0 179.5 59t68.5 154q0 160 -230 256q-166 68 -239 141q-90 86 -90 209q0 127 81.5 214t217.5 109v207h114v-200q147 -4 256 -72l-47 -119q-119 70 -248 70q-111 0 -170 -60q-51 -53 -51 -127q0 -82 60 -135q53 -49 192 -108 q156 -70 229 -152q78 -90 78 -219q0 -127 -80 -221q-86 -98 -231 -123v-213h-117v207q-182 2 -301 90z" />
<glyph unicode="%" horiz-adv-x="1572" d="M63 938q0 170 74 285q84 131 236 131q150 0 227 -121q68 -107 68 -277q0 -201 -90 -315q-84 -102 -216 -102q-127 0 -208 98q-90 109 -91 301zM190 944q0 -135 46 -219q47 -90 133 -90q176 0 176 313q0 307 -178 307q-90 0 -138 -108q-39 -86 -39 -203zM342 -27l780 1383 h105l-781 -1383h-104zM905 387q0 170 72 285q86 129 237 129q150 0 228 -121q67 -104 67 -274q0 -203 -92 -316q-82 -104 -215 -104q-125 0 -209 100q-88 109 -88 301zM1032 393q0 -135 45 -219q47 -90 131 -90q176 0 176 313q0 307 -176 308q-92 0 -139 -109 q-37 -86 -37 -203z" />
<glyph unicode="&#x26;" horiz-adv-x="1198" d="M63 365q0 250 267 403v6q-115 150 -115 293q0 135 86 231q94 104 250 105q125 0 207 -79t82 -210q0 -215 -303 -369v-8q193 -227 350 -405q90 141 131 413h143q-57 -344 -190 -505q63 -70 223 -240h-188q-14 14 -134 139q-172 -162 -399 -162q-184 0 -301 115 q-109 111 -109 273zM215 387q0 -131 84 -210t203 -79q176 0 293 133q-121 135 -394 451q-186 -119 -186 -295zM360 1081q0 -119 105 -256q121 68 174 125q63 70 63 156t-46 136t-117 50q-78 0 -128.5 -58t-50.5 -153z" />
<glyph unicode="'" horiz-adv-x="376" d="M109 1415h159l-30 -479h-99z" />
<glyph unicode="(" horiz-adv-x="567" d="M133 584q0 483 270 839h127q-262 -348 -262 -839q0 -467 262 -832h-127q-270 350 -270 832z" />
<glyph unicode=")" horiz-adv-x="567" d="M37 -248q262 358 262 838q0 475 -262 833h127q270 -348 270 -835q0 -477 -270 -836h-127z" />
<glyph unicode="*" horiz-adv-x="831" d="M61 989v127l295 -33v4l-186 248l115 66l129 -279h4l125 281l112 -64l-188 -258l305 35v-127l-305 35v-6l190 -244l-118 -67l-125 280h-4l-134 -282l-106 67l188 248v6z" />
<glyph unicode="+" horiz-adv-x="1220" d="M82 492v110h469v488h119v-488h469v-110h-469v-492h-119v492h-469z" />
<glyph unicode="," horiz-adv-x="403" d="M39 -254q80 215 119 475l178 21q-82 -311 -184 -484z" />
<glyph unicode="-" horiz-adv-x="620" d="M61 496v118h498v-118h-498z" />
<glyph unicode="." horiz-adv-x="403" d="M106 96q0 51 32 85t81 34q47 0 78 -34t31 -85q0 -59 -39 -92q-31 -27 -74 -27q-41 0 -72 29q-37 33 -37 90z" />
<glyph unicode="/" horiz-adv-x="698" d="M-6 -82l584 1485h127l-586 -1485h-125z" />
<glyph unicode="0" d="M74 662q0 270 94 456q119 236 354 236q233 0 342 -234q82 -176 82 -440q0 -283 -84 -461q-115 -242 -364 -242q-227 0 -340 242q-84 184 -84 443zM229 659q0 -195 50 -342q70 -215 227 -215q166 0 235 217q45 142 45 353q0 557 -278 557q-152 0 -225 -209 q-53 -154 -54 -361z" />
<glyph unicode="1" d="M215 1178l279 153h135v-1331h-152v1182h-4l-227 -125z" />
<glyph unicode="2" d="M90 0v96l135 135q281 283 371 406q125 168 125 315q0 270 -266 271q-141 0 -277 -111l-51 109q154 133 360 133q193 0 299 -123q90 -102 91 -258q0 -172 -125 -357q-94 -135 -340 -380l-103 -101v-4h602v-131h-821z" />
<glyph unicode="3" d="M86 68l45 118q127 -80 287 -80t241 93q66 74 64 180q-2 137 -109 211q-96 68 -241 67h-92v119h92q115 0 200 58q102 68 103 180q0 92 -55 147q-63 63 -183 64q-137 0 -256 -86l-45 112q133 102 330 103q180 0 281 -99q88 -86 88 -217q0 -223 -244 -313v-4 q127 -27 207 -115q86 -94 86 -231q0 -166 -119 -277q-129 -121 -350 -121q-203 0 -330 91z" />
<glyph unicode="4" d="M29 371v102l596 858h161v-837h189v-123h-189v-371h-147v371h-610zM190 494h449v467q0 106 8 206h-8q-35 -70 -109 -194z" />
<glyph unicode="5" d="M84 59l43 121q121 -76 276 -76q133 0 225.5 85t92.5 223q-2 311 -377 311q-92 0 -182 -14l86 622h610v-133h-496l-55 -360q53 8 109 8q154 0 274 -70q189 -110 189 -346q0 -197 -135.5 -325t-342.5 -128q-195 0 -317 82z" />
<glyph unicode="6" d="M70 541q0 375 221 602q156 160 405 198q74 10 127 11l2 -131q-63 2 -135 -11q-201 -35 -323 -182q-113 -131 -136 -317h5q115 162 321 161q176 0 284.5 -117.5t108.5 -310.5q0 -190 -112 -323q-121 -143 -316 -144q-203 0 -327.5 153t-124.5 411zM225 504q2 -170 72 -279 q80 -125 229 -125q125 0 199 101q66 90 66 233q0 150 -76 234t-203 84q-82 0 -154.5 -46.5t-111.5 -123.5q-20 -39 -21 -78z" />
<glyph unicode="7" d="M117 1200v131h809v-104l-574 -1227h-159l569 1200h-645z" />
<glyph unicode="8" d="M78 334q0 246 262 364v7q-213 98 -213 299q0 160 121 258q113 92 276 92q154 0 258 -84q113 -90 113 -240q0 -211 -219 -315v-6q266 -109 266 -349q0 -174 -133 -282q-123 -100 -303 -101q-172 0 -293 91q-135 100 -135 266zM238 352q0 -117 77.5 -187.5t196.5 -70.5 q117 0 195.5 67.5t78.5 182.5q0 215 -299 303q-250 -76 -249 -295zM281 1018q0 -186 258 -258q209 74 209 254q0 104 -62.5 164.5t-169.5 60.5q-100 0 -167.5 -60.5t-67.5 -160.5z" />
<glyph unicode="9" d="M86 885q0 190 123 329.5t315 139.5q195 0 309.5 -151.5t114.5 -407.5q0 -397 -225 -625q-145 -147 -363 -178q-104 -14 -165 -12v131q254 -20 419 141q139 139 174 375h-4q-121 -150 -317 -150q-172 0 -276.5 117t-104.5 291zM242 893q0 -133 71.5 -214t190.5 -81 q186 0 270 147q17 29 17 66q0 174 -60 285q-72 135 -223 135q-123 0 -197 -103q-70 -94 -69 -235z" />
<glyph unicode=":" horiz-adv-x="403" d="M106 94q0 53 31 86t80 33q47 0 78 -33t31 -86q0 -57 -34 -87t-79 -30q-41 0 -74 31t-33 86zM109 829q0 53 30.5 86t79.5 33q47 0 78 -33t31 -86q0 -57 -34 -86.5t-79 -29.5q-41 0 -73.5 30.5t-32.5 85.5z" />
<glyph unicode=";" horiz-adv-x="403" d="M39 -254q80 215 119 475l178 21q-84 -311 -184 -484zM125 829q0 53 30.5 86t80.5 33q49 0 78.5 -33t29.5 -86q0 -55 -34 -85.5t-77 -30.5t-75.5 30.5t-32.5 85.5z" />
<glyph unicode="&#x3c;" horiz-adv-x="1220" d="M137 496v98l946 496v-129l-811 -414v-4l811 -414v-129z" />
<glyph unicode="=" horiz-adv-x="1220" d="M82 297v111h1057v-111h-1057zM82 694v113h1057v-113h-1057z" />
<glyph unicode="&#x3e;" horiz-adv-x="1220" d="M137 0v129l815 414v4l-815 414v129l946 -492v-106z" />
<glyph unicode="?" horiz-adv-x="804" d="M104 1325q109 80 279 80q160 0 250 -92q80 -80 80 -205q0 -92 -49 -186q-37 -63 -125 -172q-125 -152 -115 -314l2 -53h-139l-6 51q-2 20 -2 43q0 162 127 320q145 178 145 293q0 184 -201 184q-121 0 -200 -62zM242 94q0 51 31.5 85t78.5 34q49 0 80 -33t31 -86 q0 -59 -39 -90q-31 -27 -74 -27q-41 0 -71 29q-37 31 -37 88z" />
<glyph unicode="@" horiz-adv-x="1478" d="M84 612q0 330 201 555q211 238 538 238q258 0 418 -165t160 -421q0 -227 -107 -366q-102 -129 -247 -129q-66 0 -109 46t-39 136h-6q-109 -182 -291 -182q-90 0 -149 67q-66 72 -66 187q0 195 138.5 342t344.5 147q121 0 211 -41l-71 -373q-14 -70 -15 -118 q0 -115 76 -117q86 -2 152 100q72 113 71 285q0 231 -129 371.5t-358 140.5q-258 0 -432 -189q-182 -197 -182 -505q0 -250 145 -401.5t375 -151.5q178 0 307 73l31 -84q-152 -82 -359 -82q-256 0 -428 170q-180 180 -180 467zM510 582q0 -158 137 -158q86 0 166 96 q72 86 92 191l47 241q-45 16 -104 17q-139 0 -238.5 -116t-99.5 -271z" />
<glyph unicode="A" horiz-adv-x="1214" d="M53 0h160l147 446h492l152 -446h163l-467 1380h-180zM395 569l140 414q16 45 32.5 107.5t36.5 144.5h4q23 -88 39.5 -151.5t30.5 -102.5l141 -412h-424z" />
<glyph unicode="B" horiz-adv-x="1073" d="M156 2v1360q131 29 307 29q246 0 368 -103q106 -90 107 -239q0 -102 -63.5 -184.5t-169.5 -121.5v-4q113 -29 190 -108q94 -97 94 -240q0 -164 -112 -272q-135 -131 -459 -131q-129 0 -262 14zM311 121q47 -10 150 -10q160 0 254 63q110 72 110 217q0 139 -108 213 q-96 68 -256 68h-150v-551zM311 791h168q137 0 219 68.5t82 174.5q0 236 -311 236q-102 0 -158 -15v-464z" />
<glyph unicode="C" horiz-adv-x="1153" d="M267.5 1202.5q193.5 198.5 506.5 198.5q203 -1 316 -60l-41 -127q-117 55 -271 56q-248 0 -391 -152q-149 -157 -149 -432v-4q0 -266 140 -417.5t390 -151.5q170 0 287 55l35 -125q-129 -63 -357 -63q-289 0 -467 176q-192 187 -192 519q0 329 193.5 527.5z" />
<glyph unicode="D" horiz-adv-x="1323" d="M156 2v1360q174 29 360 29q362 0 543 -170q188 -181 188 -496q0 -342 -190 -537q-194 -200 -588 -200h-4q-182 0 -309 14zM311 123q53 -8 183 -8q289 0 440 156.5t151 445.5q0 260 -137 401q-145 147 -426 148q-119 0 -211 -19v-1124z" />
<glyph unicode="E" horiz-adv-x="972" d="M156 0v1380h714v-129h-559v-465h529v-129h-529v-528h590v-129h-745z" />
<glyph unicode="F" horiz-adv-x="962" d="M156 0v1380h712v-129h-557v-485h514v-129h-514v-637h-155z" />
<glyph unicode="G" horiz-adv-x="1282" d="M74 682q0 313 196.5 513t528.5 200q201 0 329 -62l-41 -127q-125 57 -292 58q-254 0 -405.5 -154t-151.5 -420q0 -270 144 -422.5t390 -152.5q166 0 242 39v434h-283v125h436v-654q-187 -73 -401 -73h-6q-311 0 -496 180q-190 184 -190 516z" />
<glyph unicode="H" horiz-adv-x="1296" d="M156 0v1380h155v-587h674v587h156v-1380h-156v659h-674v-659h-155z" />
<glyph unicode="I" horiz-adv-x="468" d="M156 0v1380h155v-1380h-155z" />
<glyph unicode="J" horiz-adv-x="729" d="M10 8l25 127q61 -24 137 -24h6q129 0 187 71q67 79 67 273v6v919h156v-936q0 -467 -400 -467q-104 0 -178 31z" />
<glyph unicode="K" horiz-adv-x="1067" d="M156 0v1380h155v-673h6q53 78 111 147l428 526h191l-496 -585l536 -795h-184l-461 690l-131 -151v-539h-155z" />
<glyph unicode="L" horiz-adv-x="935" d="M156 0v1380h155v-1249h584v-131h-739z" />
<glyph unicode="M" horiz-adv-x="1603" d="M121 0l94 1380h195l245 -698q84 -240 142 -463h4q55 213 147 461l256 700h195l86 -1380h-152l-35 618q-22 389 -22 561v38h-6q-74 -246 -172 -521l-252 -690h-115l-233 676q-106 307 -160 535h-6q-6 -293 -27 -613l-37 -604h-147z" />
<glyph unicode="N" horiz-adv-x="1310" d="M156 0v1380h166l454 -725q147 -236 246 -448l4 2q-18 223 -18 569v602h145v-1380h-154l-450 725q-168 272 -254 459l-6 -2q14 -211 14 -570v-612h-147z" />
<glyph unicode="O" horiz-adv-x="1366" d="M74 678q0 328 178 528q172 197 440 197q270 0 435 -192.5t165 -505.5t-157 -512q-168 -215 -459 -216q-279 0 -445 209q-158 195 -157 492zM348 289q123 -184 332 -185q215 0 338 189q108 165 108 403q0 231 -108 394q-123 186 -334 186q-215 0 -338 -184 q-110 -163 -110 -406q0 -233 112 -397z" />
<glyph unicode="P" horiz-adv-x="1054" d="M156 0v1364q147 27 323 27q250 0 375 -115q117 -107 117 -283q0 -178 -103 -288q-141 -154 -411 -154q-96 0 -146 14v-565h-155zM311 692q55 -16 150 -16q166 0 260 80t94 227q0 139 -90 211t-244 72q-102 0 -170 -15v-559z" />
<glyph unicode="Q" horiz-adv-x="1366" d="M74 676q0 332 178 532q170 195 442 195q268 0 433 -193.5t165 -504.5q0 -264 -110 -441q-102 -166 -283 -229v-8q234 -59 406 -90l-48 -132q-242 61 -509 152q-27 10 -80 20q-256 8 -418 187q-176 190 -176 512zM350 287q123 -182 332 -183q215 0 338 189 q108 165 108 403q0 231 -108 394q-121 186 -330 186q-217 0 -342 -184q-110 -165 -110 -408q0 -233 112 -397z" />
<glyph unicode="R" horiz-adv-x="1064" d="M156 0v1362q139 29 323 29q262 0 387 -113q102 -96 103 -258q0 -264 -260 -354v-7q152 -51 204 -284q70 -309 105 -375h-162q-31 55 -88 332q-33 147 -97.5 211.5t-185.5 64.5h-174v-608h-155zM311 727h185q145 0 231 74.5t86 197.5q0 268 -326 269q-115 0 -176 -15v-526 z" />
<glyph unicode="S" horiz-adv-x="974" d="M84 68l43 129q137 -86 305 -86q139 0 218 67.5t79 179.5q0 102 -60.5 169t-199.5 118q-354 135 -354 389q0 160 118.5 263.5t309.5 103.5q180 0 291 -66l-48 -127q-102 63 -249 64q-133 0 -207 -72q-59 -59 -60 -145q0 -98 66 -162q59 -55 207 -117q178 -72 258 -162 q86 -98 86 -243q0 -168 -115 -275q-126 -116 -346 -116h-4q-211 0 -338 88z" />
<glyph unicode="T" horiz-adv-x="980" d="M-4 1249v131h991v-131h-420v-1249h-155v1249h-416z" />
<glyph unicode="U" horiz-adv-x="1288" d="M156 553v827h155v-829q0 -225 95 -340q84 -104 231 -105q340 0 340 445v829h156v-817q0 -299 -146 -450q-129 -135 -356 -136q-215 0 -338 129q-137 147 -137 447z" />
<glyph unicode="V" horiz-adv-x="1097" d="M8 1380h168l217 -694q106 -344 148 -520h4q43 180 157 520l238 694h166l-488 -1380h-165z" />
<glyph unicode="W" horiz-adv-x="1691" d="M31 1380h164l170 -718q68 -279 102 -478h6q23 139 115 480l190 716h158l176 -714q74 -305 100 -480h5q35 193 110 480l191 714h157l-389 -1380h-158l-180 737q-72 291 -94 455h-4q-25 -147 -109 -455l-202 -737h-160z" />
<glyph unicode="X" horiz-adv-x="1132" d="M53 0l418 700l-401 680h178l188 -336q45 -78 129 -233h4q39 80 129 233l193 336h180l-418 -671l426 -709h-180l-182 315q-57 98 -160 275h-4q-41 -76 -152 -275l-170 -315h-178z" />
<glyph unicode="Y" horiz-adv-x="1067" d="M27 1380h178l196 -387q90 -176 142 -288h4q45 109 141 290l203 385h174l-453 -790v-590h-155v588z" />
<glyph unicode="Z" horiz-adv-x="1097" d="M61 0v92l764 1157h-698v131h897v-96l-760 -1153h770v-131h-973z" />
<glyph unicode="[" horiz-adv-x="567" d="M170 -229v1634h365v-102h-238v-1430h238v-102h-365z" />
<glyph unicode="\" horiz-adv-x="700" d="M0 1403h127l580 -1485h-127z" />
<glyph unicode="]" horiz-adv-x="567" d="M35 -127h235v1430h-235v102h362v-1634h-362v102z" />
<glyph unicode="^" horiz-adv-x="1220" d="M131 391l422 940h115l422 -940h-129l-349 805h-4l-350 -805h-127z" />
<glyph unicode="_" horiz-adv-x="1024" d="M0 -154h1024v-102h-1024v102z" />
<glyph unicode="`" horiz-adv-x="614" d="M53 1399h183l178 -289h-113z" />
<glyph unicode="a" horiz-adv-x="956" d="M74 258q0 178 150 274q147 94 421 93h12v22q0 244 -223 244h-4q-143 0 -250 -72l-37 107q129 84 310 84q360 0 360 -396v-378q0 -144 14 -236h-141l-14 127h-6q-100 -150 -299 -150q-137 0 -220 89q-74 78 -73 192zM231 279q0 -90 49.5 -136.5t122.5 -46.5q94 0 164 54 q59 47 84 120q8 27 8 58v184h-27q-401 0 -401 -233z" />
<glyph unicode="b" horiz-adv-x="1132" d="M143 0q8 117 9 246v1206h155v-627h4q100 184 334 185q180 0 295 -139.5t115 -364.5q0 -250 -137 -397q-123 -131 -297 -132q-221 0 -328 187h-6l-8 -164h-136zM307 389q0 -37 6 -65q27 -100 103 -160t174 -60q143 0 225 109t82 287q0 164 -78 270q-82 115 -223 115 q-96 0 -174 -62.5t-105 -167.5q-10 -39 -10 -75v-191z" />
<glyph unicode="c" horiz-adv-x="894" d="M78 483q0 231 142 379t374 148q152 -1 246 -54l-39 -122q-90 49 -209 49q-168 0 -261 -112t-93 -279q0 -174 97 -280t251 -106q111 0 219 50l31 -119q-117 -57 -279 -57q-215 0 -347 138t-132 365z" />
<glyph unicode="d" horiz-adv-x="1120" d="M78 479q0 242 129 391q123 139 307 140q213 0 295 -154h4v596h156v-1206q0 -129 8 -246h-139l-9 172h-4q-94 -195 -331 -195q-178 0 -297 140.5t-119 361.5zM236 489q0 -166 75 -270q82 -115 224 -115q123 0 200.5 90.5t77.5 213.5v182q0 47 -6 80q-23 92 -92 153 q-76 63 -174 64q-141 0 -223 -111.5t-82 -286.5z" />
<glyph unicode="e" horiz-adv-x="997" d="M78 479q0 233 124 383t326 150q211 0 316 -164q78 -123 78 -293q0 -49 -7 -80h-686q2 -188 105 -285q88 -86 237 -86q150 0 267 52l28 -113q-129 -61 -317 -61q-217 0 -344 136t-127 361zM233 590h535v9q0 113 -49 192q-68 106 -205 106q-127 0 -205 -104 q-63 -82 -76 -203z" />
<glyph unicode="f" horiz-adv-x="573" d="M29 868v121h137v49q0 236 113 346q90 90 231 91q88 0 149 -31l-24 -121q-51 23 -117 23q-197 0 -196 -304v-53h241v-121h-239v-868h-158v868h-137z" />
<glyph unicode="g" horiz-adv-x="1114" d="M78 487q0 242 137 390q123 133 301 133q215 0 305 -172h4l9 151h139q-8 -121 -8 -270v-576q0 -326 -138 -452q-125 -117 -346 -117q-201 0 -319 80l43 121q123 -78 284 -78q319 0 320 358v117h-4q-94 -170 -313 -170q-180 0 -297 138.5t-117 346.5zM236 498 q0 -162 77 -265q79 -108 221 -108h3q86 0 156.5 51t99.5 141q16 44 16 97v192q0 117 -77 199t-193 82q-135 0 -219 -106.5t-84 -282.5z" />
<glyph unicode="h" horiz-adv-x="1105" d="M152 0v1452h155v-621h4q47 82 132 130.5t180 48.5q125 0 215 -78q123 -109 123 -336v-596h-158v578q0 303 -234 303q-86 0 -153.5 -54.5t-96.5 -136.5q-12 -35 -12 -88v-602h-155z" />
<glyph unicode="i" horiz-adv-x="458" d="M125 1286q0 45 29.5 76t74.5 31q47 0 76 -31t29 -76q0 -53 -37 -84q-30 -22 -67 -22h-3q-39 0 -67 24q-35 29 -35 82zM152 0v989h155v-989h-155z" />
<glyph unicode="j" horiz-adv-x="475" d="M-92 -305q135 8 194 78q39 43 53.5 121.5t14.5 252.5v842h158v-907q0 -285 -115 -404q-102 -106 -287 -108zM143 1286q0 45 30 76t77 31q45 0 74.5 -31t29.5 -76q0 -53 -39 -84q-30 -22 -66 -22h-3q-37 0 -70 26.5t-33 79.5z" />
<glyph unicode="k" horiz-adv-x="919" d="M152 0v1452h155v-924h4q41 59 86 113l299 348h189l-379 -409l430 -580h-188l-349 485l-92 -102v-383h-155z" />
<glyph unicode="l" horiz-adv-x="458" d="M152 0v1452h155v-1452h-155z" />
<glyph unicode="m" horiz-adv-x="1669" d="M143 989h138l8 -162h6q104 182 307 183q96 0 170 -54.5t105 -144.5h4q43 80 108 129q92 70 217 70q121 0 205 -82q115 -111 115 -340v-588h-154v567q0 313 -221 314q-102 0 -169 -80t-67 -183v-618h-153v604q0 123 -54.5 200t-156.5 77q-106 0 -176 -86t-70 -193v-602 h-153v731q0 119 -9 258z" />
<glyph unicode="n" horiz-adv-x="1105" d="M143 989h140l8 -164h6q39 78 121 129q90 55 203 56q125 0 215 -78q125 -109 125 -336v-596h-158v578q0 303 -234 303q-88 0 -155.5 -55.5t-94.5 -139.5q-12 -39 -12 -84v-602h-155v731q0 119 -9 258z" />
<glyph unicode="o" horiz-adv-x="1091" d="M78 487q0 223 125 369q131 154 350 154q213 0 340 -148q121 -141 121 -358q0 -225 -125 -371q-131 -156 -352 -156q-211 0 -338 152q-121 141 -121 358zM311 227q86 -129 232 -129q145 0 233 131q76 115 76 269q0 156 -74 266q-84 127 -231 127q-154 0 -238 -129 q-73 -110 -73 -266t75 -269z" />
<glyph unicode="p" horiz-adv-x="1132" d="M143 989h142l8 -172h4q111 193 346 193q178 0 295 -139.5t117 -362.5q0 -252 -135 -397q-121 -133 -306 -134q-209 0 -303 160h-4v-543h-155v1076q0 160 -9 319zM307 397q0 -123 80 -209t203 -86q143 0 227 113q80 107 80 287q0 162 -78 268q-82 115 -223 115 q-94 0 -173 -63.5t-106 -168.5q-10 -47 -10 -75v-181z" />
<glyph unicode="q" horiz-adv-x="1118" d="M78 477q0 260 143 408q125 125 297 125q215 0 301 -172l4 -2l6 153h148q-8 -141 -8 -270v-1125h-156v560h-4q-94 -176 -320 -177q-174 0 -292.5 139.5t-118.5 360.5zM236 489q0 -166 73 -270q80 -115 226 -115q90 0 160.5 53.5t103.5 149.5q14 45 14 90v197 q0 119 -75.5 205t-196.5 86q-139 0 -222 -110.5t-83 -285.5z" />
<glyph unicode="r" horiz-adv-x="641" d="M145 989h138l6 -194h6q35 98 108.5 156.5t163.5 58.5q27 0 47 -4v-148q-25 4 -57 4q-123 0 -192 -108q-57 -90 -58 -219v-535h-155l2 688q0 152 -9 301z" />
<glyph unicode="s" horiz-adv-x="784" d="M80 47l41 121q111 -70 229 -70q98 0 150 47q49 41 49 111q0 68 -42 111t-145 84q-253 98 -253 275q0 122 89 203t236 81q137 0 234 -60l-43 -116q-90 57 -197 57q-80 0 -125 -41t-45 -102t47 -103q39 -35 141 -76q254 -102 254 -297q0 -133 -95 -212.5t-259 -79.5 q-154 0 -266 67z" />
<glyph unicode="t" horiz-adv-x="655" d="M35 868v121h155v180l154 52v-232h260v-121h-260v-565q0 -194 134 -194h1q61 0 105 14l8 -121q-57 -22 -142 -22h-8q-121 0 -186.5 74.5t-65.5 248.5v565h-155z" />
<glyph unicode="u" horiz-adv-x="1095" d="M145 408v581h156v-553q0 -327 224 -327h1q88 0 158 55q61 47 88 117q16 43 16 96v612h156v-727q0 -129 8 -262h-139l-8 162h-6q-102 -184 -322 -185q-137 0 -221 86q-111 109 -111 345z" />
<glyph unicode="v" horiz-adv-x="950" d="M27 989h168l198 -571q57 -162 84 -256h4q20 76 84 256l201 571h164l-385 -989h-146z" />
<glyph unicode="w" horiz-adv-x="1476" d="M39 989h160l139 -516q47 -178 76 -315h4q27 121 90 313l168 518h133l160 -510q53 -168 88 -321h4q25 129 80 319l147 512h156l-318 -989h-141l-158 494q-59 190 -88 325h-4q-33 -150 -92 -327l-166 -492h-143z" />
<glyph unicode="x" horiz-adv-x="913" d="M18 0l347 504l-330 485h174l145 -219q47 -70 103 -164h4q39 68 102 164l142 219h172l-334 -479l342 -510h-176l-152 229q-43 66 -106 177h-7q-29 -53 -106 -177l-148 -229h-172z" />
<glyph unicode="y" horiz-adv-x="929" d="M20 989h170l222 -600q33 -86 63 -205h6q18 68 64 209l203 596h165l-268 -706q-102 -264 -166 -389q-78 -152 -166 -230q-102 -92 -204 -115l-43 132q86 31 159 96q96 84 152 211q12 29 12 43t-12 45z" />
<glyph unicode="z" horiz-adv-x="845" d="M35 0v92l461 615q35 47 122 151v4h-542v127h731l-2 -100l-455 -610q-57 -76 -119 -148v-4h582v-127h-778z" />
<glyph unicode="{" horiz-adv-x="567" d="M57 541v96q166 -2 166 154q0 59 -17.5 173.5t-17.5 174.5q0 266 293 266h37v-102h-37q-166 0 -166 -181q0 -53 15.5 -155.5t17.5 -153.5q0 -182 -143 -221v-4q143 -39 143 -221q-2 -53 -17.5 -155.5t-15.5 -156.5q0 -182 168 -182h35v-102h-37q-293 0 -293 278 q0 57 17.5 169t17.5 169q0 156 -166 154z" />
<glyph unicode="|" horiz-adv-x="468" d="M174 -512v2048h123v-2048h-123z" />
<glyph unicode="}" horiz-adv-x="567" d="M49 -127h35q168 0 168 182q0 53 -15.5 155.5t-17.5 156.5q0 182 143 221v4q-143 39 -143 221q2 51 17.5 153.5t15.5 155.5q0 180 -166 181h-37v102h37q291 0 291 -266q0 -59 -16.5 -174t-16.5 -174q0 -156 166 -154v-96q-166 2 -166 -154q0 -57 16.5 -169t16.5 -169 q0 -279 -291 -278h-37v102z" />
<glyph unicode="~" horiz-adv-x="1220" d="M104 438q-4 139 62.5 217t175.5 78q90 0 289 -92q184 -86 262 -86q113 0 115 172h108q6 -150 -63 -227q-61 -68 -164 -68q-102 0 -295 90t-254 90q-123 0 -125 -174h-111z" />
<glyph unicode="&#xa1;" horiz-adv-x="454" d="M119 883q0 59 37 90q31 27 73 26q43 0 75 -29.5t32 -86.5q0 -51 -31 -84t-78 -33q-49 0 -78.5 32.5t-29.5 84.5zM141 -399l25 987h123l26 -987h-174z" />
<glyph unicode="&#xa2;" d="M133 668q0 199 110.5 336t291.5 165v207h114v-202q125 0 223 -52l-38 -123q-88 53 -216 54q-147 0 -238 -111t-91 -270q0 -170 91 -271.5t232 -101.5q123 0 232 53l30 -112q-90 -53 -225 -62v-207h-114v209q-178 18 -285 137q-117 125 -117 351z" />
<glyph unicode="&#xa3;" d="M113 0v90q104 55 167.5 154.5t63.5 214.5q0 76 -12 155h-209v115h192q-25 141 -24 229q0 178 106.5 287t270.5 109q135 0 217 -51l-39 -119q-70 41 -180 41q-225 0 -226 -262q0 -102 25 -234h291v-115h-277q14 -160 -6 -245q-35 -137 -147 -234v-4h612v-131h-825z" />
<glyph unicode="&#xa4;" d="M57 1067l84 86l138 -152q92 86 231 86q143 0 231 -83l144 149l82 -84l-156 -143q70 -100 70 -242q0 -154 -70 -252l150 -147l-82 -84l-138 153q-92 -88 -237 -88q-143 0 -230 82l-133 -147l-82 84l146 141q-76 98 -76 246q0 147 78 254zM262 676q0 -117 62 -201 q70 -94 182 -94q121 0 188 92q60 84 60 209q0 119 -64 201q-68 90 -184 90q-117 0 -184 -94q-59 -82 -60 -203z" />
<glyph unicode="&#xa5;" d="M37 1331h168l217 -434q39 -78 82 -182h6q37 104 80 186l229 430h162l-363 -626h267v-93h-314v-153h314v-92h-314v-367h-149v367h-311v92h311v153h-311v93h266z" />
<glyph unicode="&#xa6;" horiz-adv-x="468" d="M174 -358v716h123v-716h-123zM174 666v716h123v-716h-123z" />
<glyph unicode="&#xa7;" horiz-adv-x="1032" d="M121 702q0 137 147 240q-74 57 -75 168q0 129 104 208t260 79q158 0 270 -68l-41 -104q-100 66 -237 65q-92 0 -154.5 -44t-62.5 -118q0 -76 74 -124q49 -33 186 -80q156 -53 227 -113q94 -80 94 -205q0 -143 -131 -246q78 -70 78 -180q0 -147 -117 -229 q-104 -74 -260 -74q-195 0 -307 84l47 105q109 -82 262 -82q102 0 168 47t66 131q0 74 -55.5 123t-198.5 100q-176 63 -250 123q-94 78 -94 194zM250 721q0 -119 219 -199q170 -61 231 -102q82 64 82 166q0 131 -188 198q-90 33 -248 107q-96 -70 -96 -168v-2z" />
<glyph unicode="&#xa8;" horiz-adv-x="614" d="M33 1239q0 39 27.5 67.5t66.5 28.5t64.5 -28.5t25.5 -67.5q0 -41 -25.5 -68.5t-66.5 -27.5t-66.5 28.5t-25.5 67.5zM395 1239q0 39 28 67.5t66 28.5q41 0 67 -28.5t26 -67.5q0 -41 -27 -68.5t-68 -27.5q-39 0 -65.5 28.5t-26.5 67.5z" />
<glyph unicode="&#xa9;" horiz-adv-x="1386" d="M74 696q0 262 181 446.5t443 184.5q260 0 437.5 -185.5t177.5 -445.5q0 -262 -177.5 -448.5t-439.5 -186.5t-442 185.5t-180 449.5zM174 690q0 -227 149.5 -388t374.5 -161t375 166q144 160 144 389q0 227 -147.5 389t-373.5 162q-227 0 -379 -166q-143 -162 -143 -391z M354 684q0 170 119 279q113 102 272 102q162 0 226 -55l-23 -76q-84 49 -200 49q-143 0 -217 -81t-74 -212q0 -127 76.5 -211t216.5 -84q127 0 208 56l23 -74q-94 -63 -252 -64q-172 0 -274 109q-100 102 -101 262z" />
<glyph unicode="&#xaa;" horiz-adv-x="688" d="M68 727q0 113 107.5 176.5t297.5 57.5v22q0 63 -44 98t-110 35q-100 0 -172 -53l-28 80q90 68 223 67q250 0 250 -284v-224q0 -89 12 -157h-110l-11 88h-4q-76 -98 -205 -98q-96 0 -151 55t-55 137zM188 735q0 -51 36 -80.5t85 -29.5q92 0 144 75q22 36 22 56v121 q-287 8 -287 -142z" />
<glyph unicode="&#xab;" horiz-adv-x="835" d="M59 516l273 373h131l-273 -373l275 -373h-133zM383 516l270 373h133l-274 -373l276 -373h-133z" />
<glyph unicode="&#xac;" horiz-adv-x="1220" d="M82 698v111h1057v-557h-119v446h-938z" />
<glyph unicode="&#xad;" horiz-adv-x="620" d="M61 496v118h498v-118h-498z" />
<glyph unicode="&#xae;" horiz-adv-x="1044" d="M68 938q0 193 133 327t325 134q190 0 321.5 -135.5t131.5 -325.5q0 -193 -131 -328t-324 -135t-324.5 135t-131.5 328zM154 938q0 -160 107.5 -277.5t264.5 -117.5q160 0 265.5 116.5t105.5 278.5q0 160 -106.5 276.5t-266.5 116.5q-158 0 -264 -116.5t-106 -276.5z M358 670v514q92 12 144 12q104 0 157 -39q47 -35 48 -106q0 -94 -101 -125v-4q70 -12 86 -125q15 -92 33 -127h-80q-18 25 -37 133q-16 90 -112 90h-60v-223h-78zM436 952h62q127 0 127 90q0 94 -129 95q-33 0 -60 -4v-181z" />
<glyph unicode="&#xaf;" horiz-adv-x="614" d="M84 1196v102h448v-102h-448z" />
<glyph unicode="&#xb0;" horiz-adv-x="632" d="M59 1133q0 115 77 193.5t192 78.5q113 0 186.5 -74.5t73.5 -187.5q0 -111 -78 -190t-188 -79q-111 0 -187 75t-76 184zM164 1135q0 -72 45 -122t117 -50t116.5 52t44.5 126q0 76 -45 126t-118 50q-74 0 -117 -54.5t-43 -127.5z" />
<glyph unicode="&#xb1;" horiz-adv-x="1220" d="M82 0v111h1057v-111h-1057zM82 651v111h469v405h119v-405h469v-111h-469v-418h-119v418h-469z" />
<glyph unicode="&#xb2;" horiz-adv-x="700" d="M92 545v67l125 119q137 131 193 203q68 90 67 168q0 147 -160 147q-84 0 -167 -63l-39 84q94 84 237 84q131 0 203 -74q59 -63 59 -154q0 -104 -80 -211q-49 -66 -194 -202l-66 -62v-4h355v-102h-533z" />
<glyph unicode="&#xb3;" horiz-adv-x="677" d="M74 590l35 92q78 -53 186 -53q90 0 139 49q43 41 43 98q0 76 -69 117q-59 35 -152 35h-51v86h53q68 0 123 30q66 39 65 107q2 106 -131 106q-92 0 -168 -55l-34 88q98 63 223 64q121 0 184 -60q57 -51 58 -131q0 -131 -154 -186v-4q82 -12 134 -66.5t52 -132.5 q0 -100 -80 -168q-86 -72 -233 -71q-141 0 -223 55z" />
<glyph unicode="&#xb4;" horiz-adv-x="614" d="M217 1110l178 289h183l-248 -289h-113z" />
<glyph unicode="&#xb6;" horiz-adv-x="1021" d="M70 930q-4 190 110 309q141 145 438 145q150 0 230 -16v-1470h-115v1376h-145v-1376h-115v645h-14q-141 0 -256 96q-131 111 -133 291z" />
<glyph unicode="&#xb7;" horiz-adv-x="403" d="M92 561q0 51 31 84t80 33t78.5 -33t29.5 -84q0 -59 -33.5 -88t-76.5 -29t-76 30t-33 87z" />
<glyph unicode="&#xb8;" horiz-adv-x="614" d="M117 -373l28 82q51 -29 111 -28q90 0 90 65q-2 74 -160 88l99 170h100l-70 -108q59 -8 101.5 -46.5t42.5 -95.5q0 -164 -207 -164q-78 0 -135 37z" />
<glyph unicode="&#xb9;" horiz-adv-x="632" d="M125 1253l186 90h111v-798h-125v684h-4l-146 -72z" />
<glyph unicode="&#xba;" horiz-adv-x="710" d="M37 866q0 145 90 244.5t233 99.5t228.5 -94t85.5 -239q0 -147 -88 -244.5t-232 -97.5q-141 0 -229 94t-88 237zM162 868q0 -90 51 -161q55 -80 143 -80q94 0 148 80q47 67 47 165t-47 166q-55 78 -150 78q-92 0 -145 -80q-47 -70 -47 -168z" />
<glyph unicode="&#xbb;" horiz-adv-x="835" d="M47 889h131l275 -373l-273 -373h-131l273 373zM369 889h131l274 -373l-272 -373h-131l272 373z" />
<glyph unicode="&#xbc;" horiz-adv-x="1511" d="M90 1253l184 90h111v-798h-125v684h-4l-145 -72zM268 -23l774 1377h105l-774 -1377h-105zM791 215v72l397 522h127v-502h125v-92h-125v-215h-121v215h-403zM924 309l2 -2h268v254q0 59 6 127h-4q-20 -41 -68 -113z" />
<glyph unicode="&#xbd;" horiz-adv-x="1511" d="M59 1253l185 90h110v-798h-125v684h-4l-145 -72zM229 -23l775 1377h104l-774 -1377h-105zM874 0v68l127 120q137 129 193 201q66 90 66 168q0 147 -158 148q-84 0 -170 -64l-39 84q96 84 240 84q131 0 200 -74q61 -63 62 -153q0 -104 -80 -211q-49 -66 -195 -203l-65 -62 v-4h352v-102h-533z" />
<glyph unicode="&#xbe;" horiz-adv-x="1511" d="M61 590l35 92q78 -53 187 -53q90 0 141 49q43 41 41 98q0 76 -70 117q-59 35 -151 35h-51v86h53q68 0 123 30q66 39 67 107q0 106 -133 106q-88 0 -168 -55l-35 86q96 66 224 66q121 0 186 -60q55 -51 55 -131q0 -131 -153 -186v-4q82 -12 134 -66.5t52 -132.5 q0 -100 -80 -168q-86 -72 -231 -71q-141 0 -226 55zM342 -23l774 1377h107l-774 -1377h-107zM811 215v72l397 522h129v-502h123v-92h-123v-215h-120v215h-406zM944 309l2 -2h271v254q0 59 6 127h-4q-23 -41 -68 -113z" />
<glyph unicode="&#xbf;" horiz-adv-x="804" d="M117 -131q0 92 49 186q35 63 125 172q125 152 115 314l-3 53h140l6 -51q2 -20 2 -43q0 -162 -127 -320q-145 -178 -145 -293q0 -184 198 -184q119 0 205 64l43 -115q-113 -80 -279 -80q-162 0 -249 90q-80 82 -80 207zM365 883q0 59 36 90q31 27 74 26q41 0 75 -29.5 t34 -86.5q0 -51 -32 -85t-79 -34q-49 0 -78.5 32.5t-29.5 86.5z" />
<glyph unicode="&#xc0;" horiz-adv-x="1214" d="M53 0l467 1380h180l467 -1380h-163l-152 446h-492l-147 -446h-160zM311 1692h197l194 -238h-127zM395 569h424l-141 412q-27 78 -70 254h-4q-39 -164 -69 -252z" />
<glyph unicode="&#xc1;" horiz-adv-x="1214" d="M53 0l467 1380h180l467 -1380h-163l-152 446h-492l-147 -446h-160zM395 569h424l-141 412q-27 78 -70 254h-4q-39 -164 -69 -252zM522 1454l195 238h196l-264 -238h-127z" />
<glyph unicode="&#xc2;" horiz-adv-x="1214" d="M53 0l467 1380h180l467 -1380h-163l-152 446h-492l-147 -446h-160zM354 1454l207 238h115l211 -238h-135l-131 154h-5l-131 -154h-131zM395 569h424l-141 412q-27 78 -70 254h-4q-39 -164 -69 -252z" />
<glyph unicode="&#xc3;" horiz-adv-x="1214" d="M53 0l467 1380h180l467 -1380h-163l-152 446h-492l-147 -446h-160zM362 1466q-2 84 34 137.5t98 53.5q51 0 122 -41q63 -37 99 -37q51 0 57 84h84q2 -186 -133 -186q-49 0 -122 38.5t-99 38.5q-45 0 -56 -88h-84zM395 569h424l-141 412q-27 78 -70 254h-4 q-39 -164 -69 -252z" />
<glyph unicode="&#xc4;" horiz-adv-x="1214" d="M53 0l467 1380h180l467 -1380h-163l-152 446h-492l-147 -446h-160zM340 1577q0 39 26.5 67.5t67.5 28.5q39 0 64.5 -27.5t25.5 -68.5t-25.5 -69.5t-66.5 -28.5h-2q-39 0 -64.5 28.5t-25.5 69.5zM395 569h424l-141 412q-27 78 -70 254h-4q-39 -164 -69 -252zM705 1577 q0 39 26.5 67.5t67.5 28.5q39 0 64.5 -27.5t25.5 -68.5t-25.5 -69.5t-66.5 -28.5h-2q-39 0 -64.5 28.5t-25.5 69.5z" />
<glyph unicode="&#xc5;" horiz-adv-x="1214" d="M55 0l459 1356q-109 37 -108 151q0 78 58 132.5t154 54.5t152.5 -52.5t56.5 -134.5q0 -119 -114 -155l456 -1352h-165l-150 446h-492l-147 -446h-160zM393 569h426l-143 420q-8 23 -68 244h-6q-23 -115 -57 -221zM506 1507q0 -45 31.5 -75.5t78.5 -30.5q49 0 80 30.5 t31 79.5q0 111 -113 111q-49 0 -78.5 -33t-29.5 -82z" />
<glyph unicode="&#xc6;" horiz-adv-x="1554" d="M-2 0l625 1380h815v-129h-576l53 -467h504v-129h-485l63 -526h494v-129h-629l-61 502h-416l-227 -502h-160zM436 629h350l-47 409q-8 80 -22 230h-8q-49 -127 -91 -224z" />
<glyph unicode="&#xc7;" horiz-adv-x="1169" d="M74 678q0 326 193.5 524.5t506.5 198.5q203 0 316 -60l-41 -127q-117 55 -271 56q-248 0 -391 -152q-150 -158 -149 -436q0 -266 140 -417.5t390 -151.5q170 0 287 55l35 -125q-127 -61 -359 -63l-53 -84q59 -8 100 -48.5t41 -97.5q0 -80 -58.5 -119t-144.5 -39 q-80 0 -139 33l29 84q51 -29 110 -28q88 0 89 65q0 72 -158 88l86 152q-248 31 -397 202q-162 184 -162 490z" />
<glyph unicode="&#xc8;" horiz-adv-x="972" d="M156 0v1380h714v-129h-559v-465h529v-129h-529v-528h590v-129h-745zM244 1692h196l195 -238h-127z" />
<glyph unicode="&#xc9;" horiz-adv-x="972" d="M156 0v1380h714v-129h-559v-465h529v-129h-529v-528h590v-129h-745zM420 1454l194 238h197l-264 -238h-127z" />
<glyph unicode="&#xca;" horiz-adv-x="972" d="M156 0v1380h714v-129h-559v-465h529v-129h-529v-528h590v-129h-745zM248 1454l205 238h114l211 -238h-135l-131 154h-4l-131 -154h-129z" />
<glyph unicode="&#xcb;" horiz-adv-x="972" d="M156 0v1380h714v-129h-559v-465h529v-129h-529v-528h590v-129h-745zM246 1577q0 39 26.5 67.5t65.5 28.5q41 0 66.5 -27.5t25.5 -68.5q0 -49 -35 -76q-25 -23 -59 -22q-33 0 -61.5 24.5t-28.5 73.5zM610 1577q0 39 27 67.5t68 28.5q39 0 64.5 -27.5t25.5 -68.5 q0 -49 -30 -73.5t-65 -24.5q-33 0 -57 22q-33 27 -33 76z" />
<glyph unicode="&#xcc;" horiz-adv-x="468" d="M-59 1692h196l195 -238h-125zM156 0v1380h155v-1380h-155z" />
<glyph unicode="&#xcd;" horiz-adv-x="468" d="M137 1454l195 238h196l-264 -238h-127zM156 0v1380h155v-1380h-155z" />
<glyph unicode="&#xce;" horiz-adv-x="468" d="M-31 1454l205 238h115l211 -238h-135l-132 154h-4l-131 -154h-129zM156 0v1380h155v-1380h-155z" />
<glyph unicode="&#xcf;" horiz-adv-x="468" d="M-41 1577q0 39 26.5 67.5t65.5 28.5q41 0 66.5 -27.5t25.5 -68.5q0 -49 -29.5 -73.5t-64.5 -24.5q-33 0 -61.5 24.5t-28.5 73.5zM156 0v1380h155v-1380h-155zM324 1577q0 39 26.5 67.5t67.5 28.5q39 0 64.5 -27.5t25.5 -68.5q0 -49 -29.5 -73.5t-62.5 -24.5t-60 22 q-33 27 -32 76z" />
<glyph unicode="&#xd0;" horiz-adv-x="1333" d="M-4 639v125h170v602q174 29 360 29q362 0 543 -172q188 -178 188 -500q0 -342 -192.5 -539.5t-589.5 -197.5q-184 0 -309 14v639h-170zM322 121q53 -8 182 -8q289 0 440.5 156.5t151.5 451.5q0 260 -138 401q-145 147 -426 148q-119 0 -210 -19v-487h374v-125h-374v-518z " />
<glyph unicode="&#xd1;" horiz-adv-x="1310" d="M156 0v1380h166l454 -725q147 -236 246 -448l4 2q-18 223 -18 569v602h145v-1380h-154l-450 725q-168 272 -254 459l-6 -2q14 -211 14 -570v-612h-147zM430 1466q-2 84 34 137.5t97 53.5q51 0 123 -41q63 -37 98 -37q51 0 58 84h84q2 -186 -133 -186q-49 0 -122 38.5 t-100 38.5q-45 0 -55 -88h-84z" />
<glyph unicode="&#xd2;" horiz-adv-x="1366" d="M74 678q0 301 155 504q172 221 463 221q287 0 451 -213q149 -192 149 -485q0 -307 -153 -508q-168 -219 -465 -220q-283 0 -449 213q-152 195 -151 488zM236 682q0 -225 108 -387q123 -190 338 -191q219 0 340 195q104 164 104 397q0 227 -106 389q-121 190 -336 191 q-223 0 -344 -195q-104 -164 -104 -399zM385 1692h195l194 -238h-125z" />
<glyph unicode="&#xd3;" horiz-adv-x="1366" d="M74 678q0 301 155 504q172 221 463 221q287 0 451 -213q149 -192 149 -485q0 -307 -153 -508q-168 -219 -465 -220q-283 0 -449 213q-152 195 -151 488zM236 682q0 -225 108 -387q123 -190 338 -191q219 0 340 195q104 164 104 397q0 227 -106 389q-121 190 -336 191 q-223 0 -344 -195q-104 -164 -104 -399zM606 1454l195 238h196l-264 -238h-127z" />
<glyph unicode="&#xd4;" horiz-adv-x="1366" d="M74 678q0 301 155 504q172 221 463 221q287 0 451 -213q149 -192 149 -485q0 -307 -153 -508q-168 -219 -465 -220q-283 0 -449 213q-152 195 -151 488zM236 682q0 -225 108 -387q123 -190 338 -191q219 0 340 195q104 164 104 397q0 227 -106 389q-121 190 -336 191 q-223 0 -344 -195q-104 -164 -104 -399zM420 1454l205 238h114l211 -238h-135l-131 154h-4l-131 -154h-129z" />
<glyph unicode="&#xd5;" horiz-adv-x="1366" d="M74 678q0 301 155 504q172 221 463 221q287 0 451 -213q149 -192 149 -485q0 -307 -153 -508q-168 -219 -465 -220q-283 0 -449 213q-152 195 -151 488zM236 682q0 -225 108 -387q123 -190 338 -191q219 0 340 195q104 164 104 397q0 227 -106 389q-121 190 -336 191 q-223 0 -344 -195q-104 -164 -104 -399zM436 1466q-2 84 34 137.5t97 53.5q51 0 123 -41q63 -37 98 -37q53 0 60 84h84q2 -186 -135 -186q-49 0 -121 38.5t-101 38.5q-45 0 -53 -88h-86z" />
<glyph unicode="&#xd6;" horiz-adv-x="1366" d="M74 678q0 301 155 504q172 221 463 221q287 0 451 -213q149 -192 149 -485q0 -307 -153 -508q-168 -219 -465 -220q-283 0 -449 213q-152 195 -151 488zM236 682q0 -225 108 -387q123 -190 338 -191q219 0 340 195q104 164 104 397q0 227 -106 389q-121 190 -336 191 q-223 0 -344 -195q-104 -164 -104 -399zM410 1577q0 39 26.5 67.5t65.5 28.5q41 0 66.5 -27.5t25.5 -68.5q0 -49 -29.5 -73.5t-64.5 -24.5q-33 0 -61.5 24.5t-28.5 73.5zM774 1577q0 39 26.5 67.5t67.5 28.5q39 0 64.5 -27.5t25.5 -68.5q0 -49 -29.5 -73.5t-62.5 -24.5 t-59 22q-33 27 -33 76z" />
<glyph unicode="&#xd7;" horiz-adv-x="1220" d="M82 82l446 457l-446 456l82 82l446 -456l447 456l82 -82l-449 -456l449 -457l-82 -82l-447 457l-446 -457z" />
<glyph unicode="&#xd8;" horiz-adv-x="1366" d="M74 682q0 326 178 526q172 195 438 195q195 0 340 -113l119 164l96 -63l-125 -179q172 -195 172 -510q0 -346 -184 -544q-168 -180 -422 -181q-201 0 -348 117l-125 -172l-90 68l127 182q-176 195 -176 510zM233 692q0 -205 105 -387l4 2l612 867q-117 102 -268 102 q-215 0 -340 -182q-113 -164 -113 -402zM416 211q109 -106 268 -107q209 0 334 179q115 165 115 413q0 213 -101 377l-6 2z" />
<glyph unicode="&#xd9;" horiz-adv-x="1288" d="M156 553v827h155v-829q0 -225 95 -340q84 -104 231 -105q340 0 340 445v829h156v-817q0 -299 -146 -450q-129 -135 -356 -136q-215 0 -338 129q-137 147 -137 447zM365 1692h194l195 -238h-125z" />
<glyph unicode="&#xda;" horiz-adv-x="1288" d="M156 553v827h155v-829q0 -225 95 -340q84 -104 231 -105q340 0 340 445v829h156v-817q0 -299 -146 -450q-129 -135 -356 -136q-215 0 -338 129q-137 147 -137 447zM557 1454l195 238h196l-264 -238h-127z" />
<glyph unicode="&#xdb;" horiz-adv-x="1288" d="M156 553v827h155v-829q0 -225 95 -340q84 -104 231 -105q340 0 340 445v829h156v-817q0 -299 -146 -450q-129 -135 -356 -136q-215 0 -338 129q-137 147 -137 447zM391 1454l205 238h115l211 -238h-136l-131 154h-4l-131 -154h-129z" />
<glyph unicode="&#xdc;" horiz-adv-x="1288" d="M156 553v827h155v-829q0 -225 95 -340q84 -104 231 -105q340 0 340 445v829h156v-817q0 -299 -146 -450q-129 -135 -356 -136q-215 0 -338 129q-137 147 -137 447zM373 1577q0 39 26.5 67.5t67.5 28.5q39 0 64.5 -27.5t25.5 -68.5q0 -49 -29.5 -73.5t-64.5 -24.5 q-33 0 -57 22q-33 27 -33 76zM737 1577q0 39 28 67.5t66 28.5q39 0 65 -27.5t26 -68.5q0 -49 -30 -73.5t-63 -24.5t-59 22q-33 27 -33 76z" />
<glyph unicode="&#xdd;" horiz-adv-x="1067" d="M27 1380h178l196 -387q90 -176 142 -288h4q45 109 141 290l203 385h174l-453 -790v-590h-155v588zM467 1454l195 238h196l-264 -238h-127z" />
<glyph unicode="&#xde;" horiz-adv-x="1052" d="M156 0v1380h153v-274q84 16 195 16q236 0 356 -112q109 -100 109 -262q0 -205 -139.5 -317t-366.5 -112q-90 0 -154 11v-330h-153zM309 459q61 -14 154 -15q168 0 259 77t91 210q0 266 -321 266q-117 0 -183 -16v-522z" />
<glyph unicode="&#xdf;" horiz-adv-x="1087" d="M152 0v932q0 311 143 442q109 100 283 101q147 0 243 -86q104 -94 105 -254q0 -98 -47 -168q-150 -61 -150 -170q0 -76 109 -185q82 -82 112 -135q51 -82 51 -178q0 -143 -96 -232.5t-258 -89.5q-127 0 -213 43l29 123q88 -43 176 -43q98 0 156 56q53 49 53 129 q0 111 -117 221q-156 147 -156 270q0 162 185 250q16 41 16 92q0 111 -60.5 171.5t-156.5 60.5q-252 0 -252 -414v-936h-155z" />
<glyph unicode="&#xe0;" horiz-adv-x="956" d="M74 258q0 178 150.5 273.5t432.5 93.5v22q0 246 -227 244q-143 0 -250 -72l-37 107q129 84 310 84q360 0 360 -396v-378q0 -144 14 -236h-141l-14 127h-6q-100 -150 -299 -150q-137 0 -220 89q-74 78 -73 192zM188 1399h181l178 -289h-113zM231 279q0 -90 49.5 -136.5 t122.5 -46.5q94 0 164 54q59 47 84 120q8 27 8 58v184q-428 8 -428 -233z" />
<glyph unicode="&#xe1;" horiz-adv-x="956" d="M74 258q0 178 150.5 273.5t432.5 93.5v22q0 246 -227 244q-143 0 -250 -72l-37 107q129 84 310 84q360 0 360 -396v-378q0 -144 14 -236h-141l-14 127h-6q-100 -150 -299 -150q-137 0 -220 89q-74 78 -73 192zM231 279q0 -90 49.5 -136.5t122.5 -46.5q94 0 164 54 q59 47 84 120q8 27 8 58v184q-428 8 -428 -233zM377 1110l180 289h180l-248 -289h-112z" />
<glyph unicode="&#xe2;" horiz-adv-x="956" d="M74 258q0 178 150.5 273.5t432.5 93.5v22q0 246 -227 244q-143 0 -250 -72l-37 107q129 84 310 84q360 0 360 -396v-378q0 -144 14 -236h-141l-14 127h-6q-100 -150 -299 -150q-137 0 -220 89q-74 78 -73 192zM225 1110l189 289h106l193 -289h-125l-119 195h-4l-121 -195 h-119zM231 279q0 -90 49.5 -136.5t122.5 -46.5q94 0 164 54q59 47 84 120q8 27 8 58v184q-428 8 -428 -233z" />
<glyph unicode="&#xe3;" horiz-adv-x="956" d="M74 258q0 178 150.5 273.5t432.5 93.5v22q0 246 -227 244q-143 0 -250 -72l-37 107q129 84 310 84q360 0 360 -396v-378q0 -144 14 -236h-141l-14 127h-6q-100 -150 -299 -150q-137 0 -220 89q-74 78 -73 192zM231 279q0 -90 49.5 -136.5t122.5 -46.5q94 0 164 54 q59 47 84 120q8 27 8 58v184q-428 8 -428 -233zM231 1149q-2 84 33 139t96 55q41 0 127 -45q66 -35 95 -34q47 0 53 86h82q0 -186 -133 -187q-45 0 -121 41q-66 37 -92 37q-47 0 -56 -92h-84z" />
<glyph unicode="&#xe4;" horiz-adv-x="956" d="M74 258q0 178 150.5 273.5t432.5 93.5v22q0 246 -227 244q-143 0 -250 -72l-37 107q129 84 310 84q360 0 360 -396v-378q0 -144 14 -236h-141l-14 127h-6q-100 -150 -299 -150q-137 0 -220 89q-74 78 -73 192zM203 1239q0 39 27.5 67.5t66.5 28.5q41 0 66.5 -28.5 t25.5 -67.5q0 -41 -26.5 -68.5t-67.5 -27.5q-39 0 -65.5 28.5t-26.5 67.5zM231 279q0 -90 49.5 -136.5t122.5 -46.5q94 0 164 54q59 47 84 120q8 27 8 58v184q-428 8 -428 -233zM567 1239q0 39 27 67.5t68 28.5q39 0 64.5 -28.5t25.5 -67.5q0 -41 -27 -68.5t-68 -27.5 q-39 0 -64.5 28.5t-25.5 67.5z" />
<glyph unicode="&#xe5;" horiz-adv-x="956" d="M74 258q0 178 150.5 273.5t432.5 93.5v22q0 246 -227 244q-143 0 -250 -72l-37 107q129 84 310 84q360 0 360 -396v-378q0 -144 14 -236h-141l-14 127h-6q-100 -150 -299 -150q-137 0 -220 89q-74 78 -73 192zM231 279q0 -90 49.5 -136.5t122.5 -46.5q94 0 164 54 q59 47 84 120q8 27 8 58v184q-428 8 -428 -233zM274 1278q0 86 58.5 138t144.5 52q84 0 140.5 -53t56.5 -137q0 -80 -58.5 -132t-140.5 -52t-141.5 51t-59.5 133zM371 1278q0 -45 29.5 -79t72.5 -34q49 0 79 34t30 81q0 49 -30 82t-79 33q-47 0 -74.5 -35t-27.5 -82z" />
<glyph unicode="&#xe6;" horiz-adv-x="1544" d="M74 256q0 172 152.5 266t435.5 90v45q0 76 -41 140q-61 96 -193 96q-143 0 -246 -74l-39 107q135 86 297 86q250 0 312 -215h4q102 215 338 215q199 0 299 -166q75 -123 75 -281q0 -47 -6 -76h-655q-4 -186 84 -285.5t235 -99.5t260 56l31 -113q-125 -68 -311 -67 q-127 0 -227.5 59t-141.5 166h-4q-45 -106 -140 -165.5t-220 -59.5q-141 0 -223 86q-76 78 -76 190zM229 270q0 -80 50.5 -126t126.5 -46q111 0 184.5 72t73.5 178v156q-434 10 -435 -234zM807 604h508q6 104 -49 189q-66 104 -187 104q-125 0 -202 -100q-63 -84 -70 -193z " />
<glyph unicode="&#xe7;" horiz-adv-x="894" d="M78 485q0 229 142 377t374 148q152 -1 246 -54l-39 -122q-88 49 -209 49q-168 0 -261 -112t-93 -279q0 -174 97 -280t251 -106q113 0 221 50l31 -119q-113 -55 -263 -57l-53 -84q59 -8 100.5 -46t41.5 -96q0 -164 -207 -164q-78 0 -133 37l28 82q47 -29 109 -28 q92 0 90 65q-2 74 -158 88l86 152q-182 23 -291.5 159t-109.5 340z" />
<glyph unicode="&#xe8;" horiz-adv-x="997" d="M78 479q0 233 124 383t326 150q211 0 316 -164q78 -123 78 -293q0 -49 -7 -80h-686q2 -188 105 -285q88 -86 237 -86q150 0 267 52l28 -113q-129 -61 -317 -61q-217 0 -344 136t-127 361zM233 590h535q2 119 -49 201q-68 106 -205 106q-127 0 -205 -104q-63 -82 -76 -203 zM270 1399h181l180 -289h-113z" />
<glyph unicode="&#xe9;" horiz-adv-x="997" d="M78 479q0 233 124 383t326 150q211 0 316 -164q78 -123 78 -293q0 -49 -7 -80h-686q2 -188 105 -285q88 -86 237 -86q150 0 267 52l28 -113q-129 -61 -317 -61q-217 0 -344 136t-127 361zM233 590h535q2 119 -49 201q-68 106 -205 106q-127 0 -205 -104q-63 -82 -76 -203 zM438 1110l178 289h181l-248 -289h-111z" />
<glyph unicode="&#xea;" horiz-adv-x="997" d="M78 479q0 233 124 383t326 150q211 0 316 -164q78 -123 78 -293q0 -49 -7 -80h-686q2 -188 105 -285q88 -86 237 -86q150 0 267 52l28 -113q-129 -61 -317 -61q-217 0 -344 136t-127 361zM233 590h535q2 119 -49 201q-68 106 -205 106q-127 0 -205 -104q-63 -82 -76 -203 zM283 1110l188 289h104l193 -289h-123l-119 195h-4l-121 -195h-118z" />
<glyph unicode="&#xeb;" horiz-adv-x="997" d="M78 479q0 233 124 383t326 150q211 0 316 -164q78 -123 78 -293q0 -49 -7 -80h-686q2 -188 105 -285q88 -86 237 -86q150 0 267 52l28 -113q-129 -61 -317 -61q-217 0 -344 136t-127 361zM233 590h535q2 119 -49 201q-68 106 -205 106q-127 0 -205 -104q-63 -82 -76 -203 zM260 1239q0 39 28.5 67.5t67.5 28.5t64.5 -28.5t25.5 -67.5q0 -41 -26.5 -68.5t-67.5 -27.5q-39 0 -65.5 28.5t-26.5 67.5zM625 1239q0 39 27.5 67.5t66.5 28.5t65.5 -28.5t26.5 -67.5q0 -41 -26.5 -68.5t-67.5 -27.5t-66.5 28.5t-25.5 67.5z" />
<glyph unicode="&#xec;" horiz-adv-x="458" d="M-55 1399h180l180 -289h-112zM152 0v989h155v-989h-155z" />
<glyph unicode="&#xed;" horiz-adv-x="458" d="M147 1110l179 289h180l-248 -289h-111zM152 0v989h155v-989h-155z" />
<glyph unicode="&#xee;" horiz-adv-x="458" d="M-12 1110l188 289h105l192 -289h-123l-121 195h-4l-119 -195h-118zM152 0v989h155v-989h-155z" />
<glyph unicode="&#xef;" horiz-adv-x="458" d="M-45 1239q0 39 27.5 67.5t68.5 28.5q39 0 64.5 -28.5t25.5 -67.5q0 -41 -26.5 -68.5t-67.5 -27.5q-39 0 -65.5 28.5t-26.5 67.5zM152 0v989h155v-989h-155zM319 1239q0 39 27 67.5t68 28.5q39 0 64.5 -28.5t25.5 -67.5q0 -41 -26.5 -68.5t-67.5 -27.5q-39 0 -65 28.5 t-26 67.5z" />
<glyph unicode="&#xf0;" horiz-adv-x="1075" d="M80 483q0 231 137 377q127 133 305 135q139 2 238 -92l4 6q-88 154 -242 273l-284 -133l-37 81l237 115q-80 59 -213 127l70 101q156 -76 274 -166l254 123l41 -82l-215 -105q168 -141 256 -322.5t88 -406.5q0 -264 -145 -410q-127 -127 -318 -127q-197 0 -323.5 138.5 t-126.5 367.5zM238 485q0 -152 75 -264q84 -123 217 -123q145 0 228 125q73 111 73 273q0 199 -71 286q-80 102 -223 103q-147 0 -232 -135q-68 -113 -67 -265z" />
<glyph unicode="&#xf1;" horiz-adv-x="1105" d="M143 989h140l8 -164h6q39 78 121 129q90 55 203 56q125 0 215 -78q125 -109 125 -336v-596h-158v578q0 303 -234 303q-88 0 -155.5 -55.5t-94.5 -139.5q-12 -39 -12 -84v-602h-155v731q0 119 -9 258zM313 1149q-2 84 33 139t94 55q43 0 129 -45q63 -35 95 -34q47 0 51 86 h82q2 -186 -131 -187q-45 0 -123 41q-63 37 -92 37q-47 0 -54 -92h-84z" />
<glyph unicode="&#xf2;" horiz-adv-x="1091" d="M78 487q0 223 125 369q131 154 350 154q213 0 340 -148q121 -141 121 -358q0 -225 -125 -371q-131 -156 -352 -156q-211 0 -338 152q-121 141 -121 358zM236 492q0 -152 75 -265q86 -129 232 -129q145 0 233 131q76 115 76 269q0 156 -74 266q-84 127 -231 127 q-154 0 -238 -129q-74 -111 -73 -270zM287 1399h180l178 -289h-110z" />
<glyph unicode="&#xf3;" horiz-adv-x="1091" d="M78 487q0 223 125 369q131 154 350 154q213 0 340 -148q121 -141 121 -358q0 -225 -125 -371q-131 -156 -352 -156q-211 0 -338 152q-121 141 -121 358zM236 492q0 -152 75 -265q86 -129 232 -129q145 0 233 131q76 115 76 269q0 156 -74 266q-84 127 -231 127 q-154 0 -238 -129q-74 -111 -73 -270zM449 1110l178 289h180l-248 -289h-110z" />
<glyph unicode="&#xf4;" horiz-adv-x="1091" d="M78 487q0 223 125 369q131 154 350 154q213 0 340 -148q121 -141 121 -358q0 -225 -125 -371q-131 -156 -352 -156q-211 0 -338 152q-121 141 -121 358zM236 492q0 -152 75 -265q86 -129 232 -129q145 0 233 131q76 115 76 269q0 156 -74 266q-84 127 -231 127 q-154 0 -238 -129q-74 -111 -73 -270zM303 1110l189 289h104l192 -289h-122l-119 195h-4l-121 -195h-119z" />
<glyph unicode="&#xf5;" horiz-adv-x="1091" d="M78 487q0 223 125 369q131 154 350 154q213 0 340 -148q121 -141 121 -358q0 -225 -125 -371q-131 -156 -352 -156q-211 0 -338 152q-121 141 -121 358zM236 492q0 -152 75 -265q86 -129 232 -129q145 0 233 131q76 115 76 269q0 156 -74 266q-84 127 -231 127 q-154 0 -238 -129q-74 -111 -73 -270zM305 1149q-2 84 33 139t94 55q43 0 129 -45q63 -35 92 -34q49 0 54 86h81q2 -186 -131 -187q-47 0 -122 41q-63 37 -93 37q-47 0 -53 -92h-84z" />
<glyph unicode="&#xf6;" horiz-adv-x="1091" d="M78 487q0 223 125 369q131 154 350 154q213 0 340 -148q121 -141 121 -358q0 -225 -125 -371q-131 -156 -352 -156q-211 0 -338 152q-121 141 -121 358zM236 492q0 -152 75 -265q86 -129 232 -129q145 0 233 131q76 115 76 269q0 156 -74 266q-84 127 -231 127 q-154 0 -238 -129q-74 -111 -73 -270zM270 1239q0 39 29 67.5t68 28.5t64.5 -28.5t25.5 -67.5q0 -41 -27 -68.5t-68 -27.5q-39 0 -65.5 28.5t-26.5 67.5zM635 1239q0 39 27.5 67.5t66.5 28.5t65.5 -28.5t26.5 -67.5q0 -41 -26.5 -68.5t-67.5 -27.5t-66.5 28.5t-25.5 67.5z " />
<glyph unicode="&#xf7;" horiz-adv-x="1220" d="M80 492v110h1057v-110h-1057zM508 186q0 47 28.5 78t73.5 31q101 0 101 -109q0 -104 -103 -104q-37 0 -65 22q-35 31 -35 82zM510 905q0 47 28.5 77t73.5 30q101 -1 101 -107t-103 -106q-37 0 -65 24q-35 29 -35 82z" />
<glyph unicode="&#xf8;" horiz-adv-x="1091" d="M78 487q0 242 139 387q131 135 332 136h2q137 0 246 -72l82 119l75 -51l-84 -127q144 -144 144 -377q0 -254 -152 -400q-129 -125 -317 -125q-143 0 -248 72l-86 -121l-70 58l84 120q-147 143 -147 381zM233 492q0 -152 76 -261l4 -2l414 598q-70 63 -180 64 q-156 0 -242 -131q-72 -111 -72 -268zM371 160q70 -61 172 -62q141 0 230 114t89 286q0 145 -74 254l-4 2z" />
<glyph unicode="&#xf9;" horiz-adv-x="1095" d="M145 408v581h156v-553q0 -328 225 -327q88 0 158 55q61 47 88 117q16 43 16 96v612h156v-727q0 -129 8 -262h-139l-8 162h-6q-102 -184 -322 -185q-137 0 -221 86q-111 109 -111 345zM295 1399h180l180 -289h-112z" />
<glyph unicode="&#xfa;" horiz-adv-x="1095" d="M145 408v581h156v-553q0 -328 225 -327q88 0 158 55q61 47 88 117q16 43 16 96v612h156v-727q0 -129 8 -262h-139l-8 162h-6q-102 -184 -322 -185q-137 0 -221 86q-111 109 -111 345zM469 1110l180 289h180l-247 -289h-113z" />
<glyph unicode="&#xfb;" horiz-adv-x="1095" d="M145 408v581h156v-553q0 -328 225 -327q88 0 158 55q61 47 88 117q16 43 16 96v612h156v-727q0 -129 8 -262h-139l-8 162h-6q-102 -184 -322 -185q-137 0 -221 86q-111 109 -111 345zM305 1110l189 289h104l193 -289h-123l-121 195h-4l-119 -195h-119z" />
<glyph unicode="&#xfc;" horiz-adv-x="1095" d="M145 408v581h156v-553q0 -328 225 -327q88 0 158 55q61 47 88 117q16 43 16 96v612h156v-727q0 -129 8 -262h-139l-8 162h-6q-102 -184 -322 -185q-137 0 -221 86q-111 109 -111 345zM279 1239q0 39 27.5 67.5t66.5 28.5q41 0 66.5 -28.5t25.5 -67.5q0 -41 -26.5 -68.5 t-67.5 -27.5q-39 0 -65.5 28.5t-26.5 67.5zM643 1239q0 39 26.5 67.5t67.5 28.5q39 0 64.5 -28.5t25.5 -67.5q0 -41 -26.5 -68.5t-67.5 -27.5q-39 0 -64.5 28.5t-25.5 67.5z" />
<glyph unicode="&#xfd;" horiz-adv-x="929" d="M20 989h170l222 -600q33 -86 63 -205h6q18 68 64 209l203 596h165l-268 -706q-102 -264 -166 -389q-78 -152 -166 -230q-102 -92 -204 -115l-43 132q86 31 159 96q96 84 152 211q12 29 12 43t-12 45zM397 1110l178 289h183l-248 -289h-113z" />
<glyph unicode="&#xfe;" horiz-adv-x="1132" d="M152 -406v1774h155v-539h4q106 180 332 181q178 0 293 -136q119 -141 119 -366q0 -256 -137 -402q-123 -129 -304 -129q-205 0 -303 160h-4v-543h-155zM307 387q0 -41 17 -90q31 -90 104.5 -142.5t167.5 -52.5q135 0 218 110t83 292q0 160 -78 268q-84 113 -221 113 q-90 0 -166 -57.5t-106 -149.5q-18 -57 -19 -103v-188z" />
<glyph unicode="&#xff;" horiz-adv-x="929" d="M20 989h170l222 -600q33 -86 63 -205h6q18 68 64 209l203 596h165l-268 -706q-102 -264 -166 -389q-78 -152 -166 -230q-102 -92 -204 -115l-43 132q86 31 159 96q96 84 152 211q12 29 12 43t-12 45zM213 1239q0 39 27.5 67.5t66.5 28.5t64.5 -28.5t25.5 -67.5 q0 -41 -25.5 -68.5t-66.5 -27.5q-39 0 -65.5 28.5t-26.5 67.5zM575 1239q0 39 28 67.5t67 28.5q41 0 66.5 -28.5t25.5 -67.5q0 -41 -26.5 -68.5t-67.5 -27.5q-39 0 -66 28.5t-27 67.5z" />
<glyph unicode="&#x152;" horiz-adv-x="1777" d="M74 680q0 338 188 534q180 188 477 189q49 0 149.5 -11.5t149.5 -11.5h635v-129h-559v-465h526v-129h-526v-528h590v-129h-680q-49 0 -148.5 -11.5t-148.5 -11.5q-305 0 -483 203q-170 193 -170 500zM238 688q0 -268 138 -426t380 -158q128 0 202 29v1112q-94 31 -219 31 q-231 0 -366 -161t-135 -427z" />
<glyph unicode="&#x153;" horiz-adv-x="1730" d="M78 489q0 238 135 383q129 139 326 140q127 0 226 -63.5t142 -180.5h4q109 244 359 244q205 0 307 -164q78 -123 78 -291q0 -51 -6 -80h-664q0 -180 91 -276.5t239 -96.5q127 0 258 54l33 -113q-119 -66 -312 -65q-276 0 -385 241h-4q-51 -119 -160 -184 q-98 -57 -219 -57q-195 0 -321.5 139t-126.5 370zM238 494q0 -150 73 -265q86 -131 228 -131q147 0 229 131q70 111 70 267q0 160 -70 268q-80 129 -231 129q-150 0 -230 -131q-70 -111 -69 -268zM983 592h516q2 117 -49 199q-63 106 -197 106q-125 0 -198 -102 q-61 -84 -72 -203z" />
<glyph unicode="&#x178;" horiz-adv-x="1067" d="M27 1380h178l196 -387q90 -176 142 -288h4q45 109 141 290l203 385h174l-453 -790v-590h-155v588zM264 1577q0 39 26.5 67.5t67.5 28.5q39 0 65 -27.5t26 -68.5t-26 -69.5t-67 -28.5h-2q-39 0 -64.5 28.5t-25.5 69.5zM629 1577q0 39 26.5 67.5t67.5 28.5q39 0 64.5 -27.5 t25.5 -68.5t-24.5 -69.5t-67.5 -28.5h-2q-39 0 -64.5 28.5t-25.5 69.5z" />
<glyph unicode="&#x2c6;" horiz-adv-x="614" d="M63 1110l189 289h106l193 -289h-125l-119 195h-4l-119 -195h-121z" />
<glyph unicode="&#x2dc;" horiz-adv-x="614" d="M66 1149q-2 84 32.5 139t96.5 55q41 0 127 -45q66 -35 94 -34q47 0 53 86h80q2 -186 -131 -187q-45 0 -121 41q-66 37 -92 37q-47 0 -55 -92h-84z" />
<glyph unicode="&#x2000;" horiz-adv-x="847" />
<glyph unicode="&#x2001;" horiz-adv-x="1694" />
<glyph unicode="&#x2002;" horiz-adv-x="847" />
<glyph unicode="&#x2003;" horiz-adv-x="1694" />
<glyph unicode="&#x2004;" horiz-adv-x="564" />
<glyph unicode="&#x2005;" horiz-adv-x="423" />
<glyph unicode="&#x2006;" horiz-adv-x="282" />
<glyph unicode="&#x2007;" horiz-adv-x="282" />
<glyph unicode="&#x2008;" horiz-adv-x="211" />
<glyph unicode="&#x2009;" horiz-adv-x="338" />
<glyph unicode="&#x200a;" horiz-adv-x="94" />
<glyph unicode="&#x2010;" horiz-adv-x="620" d="M61 496v118h498v-118h-498z" />
<glyph unicode="&#x2011;" horiz-adv-x="620" d="M61 496v118h498v-118h-498z" />
<glyph unicode="&#x2012;" horiz-adv-x="620" d="M61 496v118h498v-118h-498z" />
<glyph unicode="&#x2013;" horiz-adv-x="1024" d="M61 467v108h902v-108h-902z" />
<glyph unicode="&#x2014;" horiz-adv-x="2048" d="M205 467v108h1638v-108h-1638z" />
<glyph unicode="&#x2018;" horiz-adv-x="401" d="M72 930q80 301 182 475l100 10q-78 -213 -116 -465z" />
<glyph unicode="&#x2019;" horiz-adv-x="401" d="M72 930q78 213 116 467l166 18q-80 -301 -182 -473z" />
<glyph unicode="&#x201a;" horiz-adv-x="401" d="M43 -246q80 213 117 467l168 21q-82 -303 -183 -475z" />
<glyph unicode="&#x201c;" horiz-adv-x="686" d="M72 930q80 301 182 475l100 10q-78 -213 -116 -465zM356 930q82 301 183 475l102 10q-80 -213 -117 -465z" />
<glyph unicode="&#x201d;" horiz-adv-x="686" d="M72 930q78 213 116 467l166 18q-80 -301 -182 -473zM356 930q80 213 117 467l166 18q-80 -301 -182 -473z" />
<glyph unicode="&#x201e;" horiz-adv-x="688" d="M43 -246q80 213 117 467l166 21q-80 -303 -183 -475zM330 -246q78 213 116 467l166 21q-80 -303 -182 -475z" />
<glyph unicode="&#x2022;" horiz-adv-x="555" d="M72 705q0 86 60.5 145t143.5 59q86 0 146.5 -59t60.5 -145t-60.5 -145.5t-148.5 -59.5q-84 0 -143 60.5t-59 144.5z" />
<glyph unicode="&#x2026;" horiz-adv-x="2048" d="M231 96q2 51 33 85t78 34q49 0 80 -34t31 -85q0 -59 -34 -89t-79 -30q-41 0 -72 29q-37 33 -37 90zM913 96q0 51 31 85t80 34t79 -34t30 -85q0 -59 -34 -89t-79 -30q-41 0 -72 29q-37 33 -35 90zM1593 96q0 51 31 85t80 34t78.5 -34t29.5 -85q0 -59 -33.5 -89t-76.5 -30 t-76 31t-33 88z" />
<glyph unicode="&#x202f;" horiz-adv-x="338" />
<glyph unicode="&#x2039;" horiz-adv-x="512" d="M59 516l273 373h131l-273 -373l275 -373h-133z" />
<glyph unicode="&#x203a;" horiz-adv-x="512" d="M47 889h131l275 -373l-273 -373h-131l273 373z" />
<glyph unicode="&#x205f;" horiz-adv-x="423" />
<glyph unicode="&#x20ac;" d="M45 502l23 92h118q-2 31 -2 59q0 57 4 111h-139l23 92h129q90 498 501 498q139 0 252 -68l-34 -123q-113 66 -224 66q-268 0 -338 -373h486l-23 -92h-477q-4 -53 -4 -111q0 -29 2 -59h438l-14 -92h-416q55 -399 338 -400q117 0 219 66l31 -115q-90 -76 -266 -76 q-416 0 -479 525h-148z" />
<glyph unicode="&#x2122;" horiz-adv-x="1601" d="M31 1286v94h602v-94h-246v-721h-111v721h-245zM662 565l63 815h143l168 -467q14 -37 58 -196h4q35 137 57 198l166 465h141l64 -815h-111l-35 510q-2 68 -4 209h-4q-43 -154 -69 -225l-177 -484h-82l-174 498q-18 49 -59 211h-6q0 -68 -4 -209l-33 -510h-106z" />
<glyph unicode="&#x25fc;" horiz-adv-x="993" d="M0 0v993h993v-993h-993z" />
<glyph unicode="&#xfb01;" horiz-adv-x="1034" d="M29 868v121h137v58q0 195 107.5 311.5t306.5 116.5q154 0 241 -66l-49 -119q-84 55 -203 56q-248 0 -247 -306v-51h563v-989h-156v868h-405v-868h-158v868h-137z" />
<glyph unicode="&#xfb02;" horiz-adv-x="1034" d="M29 868v121h137v43q0 225 137 344q111 98 303 99q164 0 279 -62v-1413h-156v1323q-55 27 -149 27q-258 0 -258 -308v-53h237v-121h-235v-868h-158v868h-137z" />
</font>
</defs>
</svg>
